<svg height='100px' width='100px'  fill="#000000" xmlns="http://www.w3.org/2000/svg" xmlns:xlink="http://www.w3.org/1999/xlink" version="1.0" x="0px" y="0px" viewBox="0 0 100 100" enable-background="new 0 0 100 100" xml:space="preserve"><g><g><path d="M86.6201401,59.9124603c-2.526619-2.3360863-5.9341049-3.6889153-9.3611679-3.79216    c-0.2531357-8.5679245-0.5063324-17.1358604-0.7594757-25.7037983c-0.0130768-0.4425468-0.4842072-0.8706818-0.9114227-0.8991222    c-0.5162659-0.0343876-1.0318451-0.0761681-1.5476227-0.1159134C67.2596588,23.7768841,61.4583359,17.002615,56.9864769,9.4058142    c-0.1478348-0.251152-0.3946114-0.4308119-0.6657944-0.5235434c-0.107048-0.3478231-0.3666039-0.6558123-0.7980347-0.7687473    c-6.0684853-1.5886002-12.1481934-1.0694547-18.3415871-1.1227336C30.8244457,6.93611,24.4832764,6.3781352,18.1542282,5.8317456    c-0.6717129-0.0579972-1.2912865,0.4960499-1.1802254,1.1969767c0.2421837,1.5284429,0.3315392,3.0492883,0.2664928,4.579082    c-0.1855164,0.1958618-0.3065109,0.4617567-0.3013,0.7894211c0.187336,11.7648802-0.3497772,23.5353851-1.5755367,35.2372665    c-0.6037149,5.7633705-1.3904982,11.5070877-2.335763,17.2241669c-0.9498672,5.7451248-2.2662516,11.490715-1.7976904,17.3509293    c0.0330114,0.4127655,0.2491598,0.6711349,0.5305786,0.7942123c-0.0904799,0.5369034,0.1742411,1.1468124,0.8669157,1.253952    c16.6161232,2.5701447,33.3554688,4.3006134,50.1459389,5.1839523c0.0966415,0.0050888,0.1871262-0.001976,0.2725601-0.0174332    c2.4463615,2.3564072,5.5279655,3.9893951,9.0942879,4.4204407c4.895607,0.591713,9.9645309-1.0947952,13.8106155-4.0996017    c4.5611572-3.5634613,7.074295-9.1294861,6.9669037-14.8777084    C92.8133926,69.2707748,90.7758102,63.7547226,86.6201401,59.9124603z M70.4463425,29.0837364    c-4.5263138-0.4592094-9.0284576-1.1283512-13.4960403-2.0000191c-0.1924629-4.6047459-0.2021599-9.2120838-0.0331917-13.8162451    C60.7155228,19.1135635,65.2587509,24.4295063,70.4463425,29.0837364z M13.3048429,82.2234802    c0.0186195-0.0968246,0.0259161-0.2003555,0.0170126-0.3117294c-0.4621811-5.7804642,0.9311628-11.5163193,1.8681107-17.1831284    c0.9672546-5.8502388,1.7438831-11.7314911,2.3534851-17.6295204c1.138504-11.0155563,1.620966-22.0924854,1.5101242-33.1648674    c0.0818748-0.12533,0.1393032-0.2781792,0.159977-0.4619274c0.2036324-1.8099155,0.209631-3.6241341,0.0210419-5.4287634    c5.882761,0.5043936,11.7707767,0.9730549,17.6776142,1.0433531c6.0909348,0.0724916,12.066349-0.4471207,18.0358467,1.0459938    c-0.3164062,5.9880047-0.3359528,11.9874535-0.0605698,17.977663c0.0224113,0.4870548,0.4807549,0.8124027,0.9114227,0.8991222    c5.7546272,1.1588345,11.5692177,1.9737415,17.4184151,2.4463787c0.1857452,0.1516857,0.3688431,0.306221,0.5560989,0.4562702    c0.2246094,0.1800175,0.4579544,0.2457943,0.676651,0.231142c0.2371063,8.0246849,0.4742355,16.0493546,0.7113419,24.074028    c-0.8683777,0.1071358-1.7267838,0.2974777-2.5603714,0.5794106c-2.2322388,0.1268196-4.4514923,0.731926-6.4739685,1.7234001    c-4.5999947,2.2550392-7.6163788,6.4500465-8.8054466,11.3707771c-1.4149818,5.8555756,0.1252937,12.5183411,3.7863541,17.346611    C45.1037674,86.3334732,29.1485596,84.660759,13.3048429,82.2234802z M89.8490295,80.9628983    c-1.8605576,5.1604843-6.5083466,9.0213013-11.7605743,10.3652573c-5.2096939,1.3330765-10.5373077-0.0100174-14.19944-4.0055389    c-5.0967598-5.5607986-6.6453514-14.6333389-2.850193-21.3008881c2.2536583-3.9593124,6.5365334-6.6029778,10.9984016-7.0586433    c0.2269897,0.0974083,0.4971313,0.1129456,0.790596-0.0039215c0.0534973-0.0213051,0.1073685-0.0392303,0.1609726-0.0596008    c2.1059799-0.0660133,4.2225494,0.363472,6.1573563,1.3854256c0.9849625,0.5202446,1.687439-0.691597,1.2651901-1.4974442    c2.6571045,0.8628082,5.0635986,2.617775,6.7912521,4.8749771C90.7991867,68.3615417,91.8474884,75.41996,89.8490295,80.9628983z"></path><path d="M64.4799194,34.5845985c-11.6664467-1.7776451-23.2725487-3.9328384-34.7994461-6.4620628    c-1.3335361-0.292593-1.5870876,1.8068714-0.2688255,2.0961151c11.5268707,2.5292282,23.1329994,4.6844177,34.7994423,6.4620514    C65.5614929,36.8864632,65.823204,34.7892647,64.4799194,34.5845985z"></path><path d="M64.4432068,41.91959c-11.0561371-3.1068115-22.3267937-5.3847809-33.7262878-6.7831383    c-1.3542919-0.1661301-1.6197243,1.9304008-0.2688522,2.0961075c11.2145634,1.3756752,22.3187885,3.5867271,33.1966171,6.6434364    C64.9435043,44.240963,65.7524033,42.2874832,64.4432068,41.91959z"></path><path d="M62.5206146,49.5216103c-10.423542-3.9008789-21.8369446-3.4719429-32.3365097-7.0580292    c-1.2862549-0.4393082-2.0881538,1.5159378-0.7985039,1.9564018c10.5030708,3.5872917,21.9254608,3.1618309,32.3364868,7.058033    C62.9984856,51.955677,63.7967682,49.9992027,62.5206146,49.5216103z"></path><path d="M48.4718971,55.7479591c-5.8195953-1.7482605-11.7690849-3.0008087-17.8035259-3.7186203    c-1.3546486-0.161129-1.620533,1.9353218-0.2688522,2.0961075c5.8517551,0.6960869,11.6295414,1.8833008,17.2738743,3.5789146    C48.9690323,58.0935936,49.7756424,56.1396179,48.4718971,55.7479591z"></path></g><path d="M85.7204514,66.5447235c-1.1107635-0.78228-2.5465317-1.0544281-3.9872665-1.2291946   c-0.0235443-0.8056488-0.162323-1.5775871-0.7605362-2.1925507c-0.7646866-0.7861176-2.1343765-0.9361725-3.1426239-1.2284279   c-1.0243378-0.296936-2.1943588-0.8401794-3.21521-0.2707253c-0.7669601,0.4278336-1.2862091,1.3033485-1.6465759,2.1329727   c-1.1529236-0.2431793-2.3063583-0.4833832-3.4626312-0.7076302c-1.8535538-0.359478-3.5803146,0.0861206-3.9649277,1.7769279   c-0.1819992,0.1978455-0.2870407,0.4746017-0.2447205,0.8213882c0.2038651,1.6706009-1.0940781,3.3767319,0.4223938,4.7912445   c0.4729919,0.441185,1.071579,0.7214584,1.7155151,0.9087601c-0.5608139,4.8270187-1.1215973,9.6540451-1.6823883,14.4810638   c-0.0632095,0.5440292,0.3341675,1.1451721,0.9136353,1.1824875c2.7501602,0.1771164,5.472229,0.5627518,8.1635971,1.1553726   c1.2976303,0.2857361,2.5689011,0.6562347,3.844368,1.0251083c1.0823746,0.3130569,2.0586853,0.0958176,2.7502594-0.8186646   c0.6125641-0.8099976,0.7217407-2.0858688,0.9283524-3.0424728c0.3052826-1.4136581,0.5452652-2.840744,0.7476044-4.2724838   c0.3701019-2.6192017,0.5405426-5.2640991,0.5600204-7.9084091c0.4152679,0.0694504,0.8299713,0.1413803,1.2432861,0.2191238   c0.4490509,0.084465,0.9580154-0.2254944,1.1126328-0.6487961C86.7434692,70.7261887,87.8708572,68.0592194,85.7204514,66.5447235z    M75.3324585,63.8464355c0.4131012-0.619339,1.1169281-0.1642151,1.6990585,0.0045166   c0.6367493,0.1845779,1.2734756,0.3691483,1.9102249,0.5537186c0.4740219,0.1373978,0.6308289,0.3312225,0.6790619,0.6716003   c-0.2855148-0.0373535-0.564537-0.0792007-0.8336792-0.1295776c-1.2276306-0.2297974-2.4514923-0.4808502-3.6743164-0.7373962   C75.1808853,64.0873108,75.2525101,63.9662971,75.3324585,63.8464355z M79.90728,86.6001511   c-0.1145477,0.4838562-0.221817,0.6968155-0.7462463,0.545166c-0.6295166-0.1820679-1.2567215-0.3687668-1.88974-0.5388336   c-1.1008072-0.2957611-2.210434-0.5528412-3.3271408-0.7809677c-1.9696121-0.402359-3.9650574-0.6692505-5.9681396-0.8334198   l1.5442352-13.2919617c0.2723312,0.0248489,0.5389404,0.0454102,0.7930145,0.065567   c3.737854,0.2965012,7.5208282,0.552742,11.2505341,1.0653305C81.5306168,77.4727631,80.9771042,82.0819626,79.90728,86.6001511z    M84.8802032,69.1301498c-0.0329514,0.6833572-0.268219,1.3508911-0.5184631,2.0001221   c-4.0931625-0.7191086-8.322113-1.0935059-12.4564667-1.3746872c-1.3869171-0.0943298-2.8452072-0.1004333-4.1721649-0.5569992   c-0.6958237-0.239418-0.7383194-0.4804153-0.639328-1.1893082c0.0823669-0.5896454,0.2288971-1.1506348,0.2903214-1.725975   c0.0063095-0.0153351,0.0111847-0.0315933,0.0166931-0.0474472c0.1148529-0.1783905,0.1791229-0.3995514,0.1617889-0.6599579   c-0.0413666-0.6219864,0.2507401-0.5870285,0.8213959-0.5508728c0.7045059,0.0446243,1.4014969,0.2325439,2.088295,0.3840637   c2.53582,0.5594711,5.1014862,1.0494385,7.6493073,1.5569229c1.8196335,0.362442,3.7584534,0.3921356,5.5344009,0.9344177   C84.3340225,68.10746,84.9179764,68.3467865,84.8802032,69.1301498z"></path><path d="M71.8263321,74.0843353c-0.5031815,2.5628128-0.7001266,5.1408157-0.6464386,7.7505035   c0.0279999,1.3601761,2.1193085,1.046402,2.0916443-0.2978363c-0.0496597-2.4138184,0.1860352-4.8161697,0.6509094-7.1838303   C74.1856766,73.0126343,72.0870972,72.7563248,71.8263321,74.0843353z"></path><path d="M76.4636688,74.6886215c-0.7373047,2.7211456-1.1716614,5.4756699-1.2448807,8.2959824   c-0.0350418,1.3507004,2.0608139,1.6286545,2.0961151,0.2688446c0.0681-2.6235733,0.4182816-5.2312469,1.1051788-7.7662964   C78.7723465,74.1870193,76.8190765,73.3769226,76.4636688,74.6886215z"></path></g></svg>