<svg height='100px' width='100px'  fill="#000000" xmlns="http://www.w3.org/2000/svg" xmlns:xlink="http://www.w3.org/1999/xlink" version="1.0" x="0px" y="0px" viewBox="0 0 100 100" enable-background="new 0 0 100 100" xml:space="preserve"><path d="M93.7014771,37.837368c-0.1411514-0.4608154-0.4858246-0.8617401-0.9537735-0.949482  c-7.6201782-1.4288216-15.2402878-2.8576469-22.860466-4.2864685c-0.0425339-0.2179871-0.1383743-0.4358215-0.3027496-0.6405334  l-9.9485168-12.3853054c-1.7152519-2.1353931-3.4305687-4.2707853-5.1458168-6.4061785  c-0.7937889-0.988224-1.5875816-1.9764652-2.3813705-2.9646893c-0.3603897-0.9119949-0.7093315-1.8285103-1.0567169-2.745636  c-0.7255173-0.1273146-1.4351196-0.323019-2.1418076-0.5775123c-0.4563637,0.6645107-0.9262009,1.3206573-1.4055901,1.9710975  c0.0425987,0.0585184,0.0845909,0.1171551,0.1289558,0.175437c-4.9053116,8.3583279-9.35392,16.9741306-13.3221245,25.8163204  L7.3947802,33.1416473c-1.3108368-0.0829201-1.6962857,1.5225601-0.9807911,2.3679237  c7.07306,8.3571281,14.1460524,16.7142372,21.2191811,25.0713654c-5.2051487,7.1457863-4.7751331,16.5770988-9.0053825,24.214756  c-0.1794167,0.3239517-0.1948586,0.6860275-0.1033554,1.0197144c-0.6750603,1.0030289,0.5477276,2.6566238,1.9077377,1.9587021  c5.6969986-2.9235764,11.3939304-5.847168,17.090929-8.7707443c5.0725365-2.6031189,10.1567192-5.6715851,15.652359-7.3370895  c0.5426483,0.3062897,1.08218,0.6179657,1.6193428,0.9337158c2.2117767,1.3001862,4.3534508,2.7171936,6.4402657,4.2088699  c4.0553703,2.8988876,7.8138847,6.2052078,11.2892189,9.7761765c0.5663528-0.1266708,1.0962753-0.3618622,1.508606-0.7789764  c0.5186081-0.5246658,0.7801819-1.1422195,0.8962708-1.8071594c-0.0145645-0.0774841-0.0291977-0.1549606-0.0438232-0.2324448  c0.0325089-0.0337677,0.0623093-0.0700531,0.0914307-0.1068802c0.037529-0.3659744,0.0381317-0.7435303,0.0182877-1.1258469  c-0.0088043-0.169342,0.0083313-0.3224106,0.046196-0.459549c-0.0199127-0.0302353-0.0395584-0.0606995-0.0617676-0.0894318  c1.3780212-7.1083984,3.507637-14.0603638,6.4044952-20.7021523c0.0507965-0.1164627,0.0839844-0.2315826,0.1045761-0.3448448  c4.8637924-6.6944695,9.2064056-13.7498016,12.9904556-21.1132011  C94.9294128,38.9481659,94.4018631,38.1290436,93.7014771,37.837368z M56.3021202,19.8289204  c3.2232475,4.0127888,6.4464951,8.0255585,9.6698112,12.0383453c-0.8500061-0.1593685-1.6999435-0.3187523-2.5499496-0.4781208  c-1.1304054-0.2119408-1.6812477-0.5201111-2.2402878-1.5455017c-0.5883675-1.0793037-1.1429367-2.1784344-1.7007561-3.2737236  c-1.1161842-2.1916409-2.1822433-4.4085979-3.2151184-6.6405888c-0.0518837-0.1120586-0.1021385-0.2248116-0.1537476-0.3369713  L56.3021202,19.8289204z M37.0995178,76.1067429c-1.6693268,0.8566742-3.3386574,1.7133331-5.0079842,2.5700073  c0.645462-0.432724,1.2894325-0.8675919,1.9371986-1.2969513c2.3525162-1.5593033,4.7231178-3.0910568,7.1058388-4.6037064  c1.1913643-0.75634,2.3878059-1.5045929,3.5865479-2.2491608c1.1108322-0.6899643,2.1891556-1.5974045,3.5690079-1.2942429  c0.5410233,0.118866,1.0760193,0.3554916,1.5975342,0.6268311C45.4622154,71.542717,41.2779541,73.962471,37.0995178,76.1067429z   M71.5923309,81.7889252c-2.8249969-2.6442795-5.8155975-5.1033859-8.9570961-7.3755112  c-1.3749733-0.9944687-2.7870674-1.9359589-4.2217827-2.8418045c-0.5201607,0.2593002-1.1204491,0.1104813-1.5992966-0.2635422  c-0.1936378-0.1512527-0.3771172-0.3118057-0.5565338-0.4761505c-0.8216248-0.7052536-1.5965881-1.4593048-2.3269806-2.2566452  c-0.109993,0.0291748-0.2201233,0.058075-0.3302498,0.0869446c-1.6070862-0.9390182-3.3019485-1.8254242-5.0341988-2.2060165  c-2.5917358-0.5694199-5.002636,1.5187302-7.0412941,2.7954483c-2.5414848,1.5916138-5.063324,3.2144623-7.5709419,4.8588638  c-3.6614552,2.4010773-7.2818699,4.8643036-10.8663845,7.3786926c0.8928776-2.5643768,1.5281124-5.2228775,2.1827183-7.864769  c1.056242-4.2625198,2.2455044-8.6677856,5.1178436-12.1061897c0.5163021-0.618084,0.5226021-1.3441429,0-1.9616699  c-6.6132431-7.8137321-13.2263527-15.6274796-19.8395977-23.4412155c8.2080708,0.5192337,16.4160748,1.0384979,24.6240788,1.5577278  c0.4387512,0.0277519,1.0142479-0.2747421,1.1977272-0.6870117c3.9072495-8.7778473,8.2909737-17.3322697,13.1204948-25.6367722  c0.0715218,0.0890312,0.1429749,0.1780615,0.2144966,0.2670918c1.2417526,3.1085472,2.5550957,6.1880903,3.944973,9.2342405  c1.0209541,2.2376137,2.0929108,4.4516907,3.1973076,6.64921c1.0109291,2.0115662,1.8980522,4.6489029,3.8469009,5.930378  c0.8646355,0.5685387,2.0904694,0.6528778,3.0761375,0.837677c1.2671509,0.2376137,2.5343018,0.4752083,3.8014526,0.7128029  c2.7153473,0.50914,5.430687,1.01828,8.1460342,1.5274353c4.4857941,0.8411179,8.9716492,1.6822166,13.4574432,2.5233307  c-6.9079361,5.6212463-13.3669586,11.7695961-19.3135376,18.4045982c-0.3507767,0.3914261-0.6520386,0.7645454-0.9064255,1.1353836  c-0.4955139,0.2323265-0.8869858,0.7456856-0.8338165,1.2764969c0.0126648,0.1268234,0.0253983,0.2536316,0.038063,0.380455  c-0.2015686,0.7474937-0.220192,1.5672913-0.0421982,2.5646935c0.4790497,2.6841888,1.0103912,5.3601685,1.5155182,8.0395966  c0.680542,3.610321,1.3610916,7.2206573,2.0416336,10.8309631C71.6450882,81.7038574,71.6176605,81.7456589,71.5923309,81.7889252z   M73.444931,76.1250763c-0.311554-1.6526337-0.6231079-3.3052826-0.9346008-4.9579163  c-0.4377975-2.3225632-0.8756027-4.6451111-1.3134079-6.967659c-0.1268539-0.6729927-0.4216843-1.540184-0.4929352-2.3472328  c0.018692-0.0191841,0.037384-0.0382652,0.0545883-0.0589561c2.1676178,0.7871666,4.3704529,1.4611626,6.6067429,2.0311737  C75.8018494,67.8433838,74.4894562,71.9472656,73.444931,76.1250763z M77.9345856,61.111393  c-2.0541687-0.528595-4.0789413-1.1490135-6.0749283-1.861393c0.4461975-0.4768829,0.9345322-0.9291992,1.3315582-1.3641243  c5.3378296-5.8470879,11.114212-11.2886276,17.2304611-16.3142433  C86.7334595,48.3757057,82.5607147,54.9032059,77.9345856,61.111393z"></path></svg>