<svg height='100px' width='100px'  fill="#000000" xmlns="http://www.w3.org/2000/svg" xmlns:xlink="http://www.w3.org/1999/xlink" version="1.0" x="0px" y="0px" viewBox="0 0 100 100" enable-background="new 0 0 100 100" xml:space="preserve"><path d="M94.4839325,59.5873795c-0.3215561-1.3554459-1.3541107-2.2677956-2.3336105-3.1813545  C83.000061,47.8713951,74.534874,38.6069031,66.8111496,28.764307c-1.5116653-1.926342-2.9860077-3.8817596-4.4349289-5.8557358  c-0.2940216-0.5309277-0.5830002-1.0646553-0.8625984-1.6032982c-0.2195816-0.4229012-0.7290497-0.5715256-1.1664009-0.4746456  c-1.192627,0.2641163-2.0537109,1.1239624-2.3851509,2.2895832c-0.0460968,0.1623421-0.0543671,0.3127308-0.0331841,0.4492264  c-1.738205,7.2094955-3.3042336,14.4588795-4.703331,21.7404957c-9.5938644-6.593235-19.4073105-12.8619156-29.4227924-18.7950134  c-1.7955971-1.6066017-3.703455-3.0868683-5.7746143-4.3228931c-2.3707294-1.4147816-7.110774-3.7760277-8.4646826,0.1371002  c-0.0978394,0.2827244-0.0730267,0.5286846,0.0283422,0.7267838C7.081181,40.2570038,5.6150088,57.5986786,5.2323275,74.9784546  c-0.0149279,0.67733,0.6700454,1.1665802,1.3074107,0.9959641c11.5232086-3.0845947,21.8589344-9.1873779,32.4220085-14.5358391  c2.6589012-1.3462677,5.3450317-2.6387787,8.0753441-3.8341789c1.3352509-0.5845604,2.6861343-1.131855,4.0471039-1.6533737  c0.0735283-0.0281944,0.1520042-0.0558319,0.2328949-0.0833664c-0.4043655,2.3948364-0.7911835,4.7926941-1.1589355,7.1936569  c-0.5023079,3.2789459-0.9645729,6.5639114-1.3993988,9.8524551c-0.280304,2.1196823-0.8857956,4.9501648,0.6893082,6.749733  c2.04282,2.3339081,5.2109833,0.116066,7.3351974-0.9225388c2.9567528-1.445694,5.9106827-2.8974228,8.8547249-4.3689346  c2.0432205-1.0212555,4.0803909-2.0549698,6.1096954-3.1037674c4.4645767-2.0950394,8.9654694-4.1112518,13.5958786-5.8184891  c1.46698-0.5408859,2.9488831-1.0407257,4.4403763-1.5094452c1.2277222-0.385807,2.5831451-0.6698418,3.6012802-1.5076256  C94.2118988,61.7524223,94.7420502,60.6749573,94.4839325,59.5873795z M52.8046455,47.5200806  c-0.1829681,0.9773827-0.3643227,1.9550667-0.5412407,2.9336052c-0.9470215-0.7518463-1.9216766-1.4699516-2.9054146-2.1716957  c-2.5175858-1.7960014-5.1349297-3.4476624-7.6822701-5.2005692c-3.0912094-2.1272392-5.9317627-4.4930267-8.5813828-7.1482925  c-1.0985203-1.1008415-2.1691017-2.2287865-3.2384701-3.3577423C37.6354752,37.353405,45.2872887,42.3377457,52.8046455,47.5200806z   M49.8690758,54.215847c-1.4143295,0.5484772-2.8122139,1.1397743-4.2016296,1.7480888  c-2.7304115,1.1954498-5.4091797,2.5065918-8.0678787,3.852787c-9.8921223,5.0087013-19.5628452,10.6809883-30.2660217,13.789135  c0.4275665-16.9277229,1.8645887-33.8252373,4.3329535-50.5781403c0.0194674-0.1319313,0.0155334-0.2557926-0.0056477-0.3713093  c1.0718908-1.7744904,6.1524544,1.8036919,7.1830921,2.5137558c0.5462837,0.3763504,1.078146,0.7727509,1.5981045,1.1846313  c-0.0101891,0.3238029,0.1331406,0.6499233,0.4976673,0.8638573c0.5575809,0.3272324,1.1117325,0.6602116,1.6681023,0.9895363  c0.7810974,0.7131138,1.541317,1.4491749,2.2883224,2.1929035c3.8624191,3.8455238,7.3820972,8.0269547,11.648077,11.4493256  c4.8255806,3.8712692,10.3151512,6.820179,15.0991707,10.74617c0.0680847,0.055851,0.1380844,0.1125374,0.2081871,0.1701317  c-0.0440788,0.2505989-0.0878525,0.5013008-0.1314278,0.7519493C51.1002312,53.7433434,50.4837456,53.9774513,49.8690758,54.215847z   M58.5779495,75.5673065c-1.4178581,0.6964417-2.8371277,1.3901062-4.2563972,2.0835648  c-0.9874649,0.48246-2.7097359,1.7137833-3.4926491,0.3909988c-0.4415855-0.7461472-0.3694649-1.8118591-0.3142929-2.6384964  c0.1026802-1.5386963,0.3865128-3.0848541,0.5951042-4.6120987c0.4364395-3.1951752,0.9096985-6.3852539,1.4117012-9.5707664  c0.3270073-2.0756989,0.6697464-4.1488991,1.0252953-6.219883c0.3940773-0.2485542,0.7079697-0.5660019,0.8414116-0.9996719  c0.2220039-0.7215385,0.0339928-1.3396378-0.3391075-1.8770714c0.2254333-1.2654228,0.457119-2.5297661,0.6930428-3.7932739  c0.5642395-0.2761421,0.8533173-1.1645622,0.32761-1.7236061c1.4390411-7.549736,3.0603409-15.064724,4.8624954-22.5359898  c0.0348969-0.14464,0.0396385-0.2793446,0.0225945-0.4038124c0.0409508-0.1433792,0.0945091-0.2644424,0.1615829-0.3670464  c0.160778,0.2202377,0.3222656,0.4398708,0.4837494,0.6595802c5.3546143,9.6077595,13.0707779,17.5992069,20.4264526,25.6905651  c1.9606094,2.1567421,3.8986282,4.334137,5.7770309,6.5631752c0.4494553,0.533474,0.8931656,1.0717926,1.334549,1.6120758  c0.4857635,0.5946999,1.0848999,1.2405357,0.2751541,1.7951927c-1.3725662,0.9399834-2.8755569,1.7322006-4.313385,2.5676422  c-4.389534,2.5505676-8.8616867,4.955719-13.3724594,7.2849426c-0.1864014,0.0875473-0.3731003,0.1748962-0.5594025,0.2626495  c-1.2988358,0.6115723-2.5944443,1.2298965-3.890358,1.8477402c-0.1993103,0.0950699-0.3356781,0.2237473-0.4208069,0.3690414  C63.4370155,73.1704788,61.0093994,74.3729401,58.5779495,75.5673065z M92.1276321,60.8048973  c-0.3802643,0.3829308-1.011879,0.5590439-1.5080338,0.7218895c-0.8295135,0.2722855-1.6713333,0.509037-2.5022583,0.7782211  c-0.0885544,0.028698-0.1766129,0.0589066-0.2650681,0.0879059c1.0273056-0.5751343,2.0995026-1.1667557,2.7858887-2.1160965  c0.5515289-0.7629433,0.3491898-1.7154083-0.0619354-2.5171318c0.0379257,0.035553,0.0754471,0.0715103,0.1133728,0.1070175  C91.39888,58.5302925,93.1535263,59.7716866,92.1276321,60.8048973z"></path></svg>