<svg height='100px' width='100px'  fill="#000000" xmlns="http://www.w3.org/2000/svg" xmlns:xlink="http://www.w3.org/1999/xlink" version="1.0" x="0px" y="0px" viewBox="0 0 100 100" enable-background="new 0 0 100 100" xml:space="preserve"><path fill="#000000" d="M93.1411438,39.8439903c0.5396194-1.3605042,0.9992065-2.7434883,1.3420486-4.1573219  c0.1025085-0.422802-0.0513535-0.9844551-0.4808578-1.1817398c-0.8146286-0.3741989-1.6293259-0.7482719-2.4438934-1.1224709  c0.3671799-0.6435928,0.7344131-1.2872467,1.1015854-1.9308395c0.2830658-0.4961872,0.1196289-1.1406097-0.375412-1.431654  c-0.159729-0.0938854-0.3206787-0.1850872-0.4804077-0.2789078c0.7473755-1.1662846,0.9762802-2.625145,0.9369965-4.1336937  c-0.055687-2.1357269-0.5516205-4.3554401-3.1194153-4.1738014c-1.3030167,0.0921612-2.3750381,0.9331036-3.1700592,1.9707584  c0.4237595-1.2841187,0.5995255-2.6221428,0.3395233-4.1145973c-0.3222122-1.8493462-2.3785553-4.0410852-4.4204559-3.479434  c-2.2814789,0.6276255-3.3942413,3.6239023-4.0064087,5.6283827c-0.0604172,0.1978607-0.0995026,0.4014702-0.1496429,0.6021423  c-0.2990875-0.1601162-0.5954971-0.3257236-0.8952942-0.484499c0.5902023-4.033741,0.1529617-12.0174904-5.2575684-9.744256  c-0.7771988,0.3265533-1.3875198,0.7729235-1.8805771,1.2958059c-0.0057449-0.030592-0.0074692-0.0613127-0.0137329-0.0919046  c-0.6206589-3.039835-2.2186203-3.5178833-5.1367264-3.0821791c-1.7906532,0.2674122-3.2117691,1.3440905-4.2531891,2.72682  c0.9138145-3.8934231-2.5475464-7.7416286-7.0835381-6.3207693c-2.0958138,0.6564932-3.5327034,2.2218208-4.3252983,4.112936  c-0.6874046-0.0050459-1.3463898,0.0562668-1.9528084,0.2230883c-2.7291222,0.7506981-5.123703,4.6888294-6.8625603,7.8749847  c-4.8333588,4.8507957-7.7399673,11.4606934-11.5418682,17.0893955  c-5.3766804,7.9601212-11.7934437,15.1733093-18.7811813,21.7449493c-0.4796448,0.4510956-0.374136,1.3312531,0.2117844,1.6434364  c1.2696848,0.6766129,2.5394335,1.3532257,3.8091183,2.0298386l-1.3565445,1.5565758  c-0.3821192,0.4385147-0.412775,1.0447426,0,1.4798126c1.2333441,1.3000183,2.5295343,2.5122833,3.8533144,3.6861038  c-0.1074257,0.0215225-0.2153606,0.0431747-0.326746,0.105896c-1.6214666,0.9129868-2.6193953,1.8350983-3.7343931,3.3201447  c-0.3424568,0.4560165-0.0753632,1.1699295,0.375349,1.4316559c7.6223249,4.4256287,15.2625322,9.8443375,23.4541702,13.1448135  c8.5736313,3.4543991,18.4153481,3.4883804,26.0933647,9.0180206c0.4405556,0.3172913,1.1958542,0.101738,1.4316521-0.375412  c5.8965607-11.9318466,12.4474487-23.4965134,19.6479263-34.6898613c1.7127991-2.6626968,3.4853745-5.2864342,5.2724533-7.8996353  c1.502861-2.1976166,4.7265701-5.2362366,5.3520279-7.8277245C94.7502213,42.2007637,94.5281525,40.4886055,93.1411438,39.8439903z   M87.7192459,25.2023792c0.2344589-0.4007034,0.525116-0.7535076,0.8719788-1.0584106  c1.1137848-1.1113586,1.9718475,0.3612347,2.0571747,1.4633942c0.0873032,1.1286659-0.0450287,2.2392559-0.6608353,3.0789852  c-0.9750061-0.5692501-1.9508972-1.1366482-2.9285202-1.7002792C87.1940002,26.3803501,87.405014,25.7842751,87.7192459,25.2023792z   M80.3824081,21.9950199c0.4329529-1.8726578,3.1279068-5.978056,4.3908234-2.1489487  c0.5645905,1.7118397-0.3659592,3.5511589-1.2753067,5.1012211c-1.1059265-0.6231537-2.2149887-1.2397308-3.3280716-1.8484516  C80.2295074,22.7307091,80.2974014,22.3627682,80.3824081,21.9950199z M70.8105316,16.8715725  c0.1581345-0.7076511,0.4360809-1.3678484,0.8340454-1.9806566c1.5812912-2.7963724,3.1749725-0.4697447,3.6511688,1.3893728  c0.3574066,1.395504,0.3326263,2.8541088,0.1111984,4.2722855c-1.5691605-0.8103504-3.1517944-1.5939407-4.7448425-2.3569641  C70.6829834,17.758564,70.7258377,17.3181992,70.8105316,16.8715725z M63.7785301,12.6490412  c1.2798424-0.8809881,3.6661873-1.4544535,4.2466087,0.3142271c0.4199982,1.2797127,0.0733871,2.6320419-0.6498489,3.7129993  c-1.7559052-0.7892113-3.5285492-1.5454016-5.3236084-2.2573957C62.4378891,13.7860088,62.9926414,13.1899986,63.7785301,12.6490412  z M51.6714363,10.617034c0.9204559-1.6311741,2.833477-2.7921567,4.7281685-2.4753742  c2.3325043,0.3899746,3.0568886,2.9780111,2.1259575,4.840003c-2.1218033-0.8751116-4.5796814-1.8473663-6.8897667-2.2922029  C51.6489525,10.665637,51.6580238,10.6407928,51.6714363,10.617034z M12.7209778,57.8730698  c5.4148102-5.19664,10.3801212-10.7648582,14.9240341-16.748024c4.2637272-5.6142693,7.3662148-12.6278095,11.8024483-18.226366  c0.4443893,0.2231541,1.0165787,0.1787014,1.3343849-0.3787327c0.5036583-0.8834152,1.0258369-1.8640995,1.5858917-2.8498936  c0.1554527-0.1497688,0.3048401-0.3061161,0.4638062-0.4520531c0.2829933-0.2598782,0.3511429-0.5619698,0.301899-0.8448391  c1.4425125-2.337038,3.1818771-4.4626102,5.5491257-5.1163578c-0.1247978,1.4251385,0.0565834,2.8791447,0.5490685,4.1768665  c-0.3920822,0.2948761-0.6379738,0.6865749-0.6067429,1.3615265c0.0430489,0.9296551,0.7888908,1.7255077,1.6265144,2.0416508  c0.8652763,0.3265553,1.7275505,0.1006546,2.5244217-0.2996655c0.4370461-0.2195759,0.824913-0.5622253,1.1998787-0.8712158  c0.4883957-0.4025574,0.4968262-0.9012985,0.5871964-1.4907303c0.0863495-0.5626087-0.1333542-1.1238117-0.730835-1.2871838  c-0.8467522-0.2315845-1.7131805-0.1679726-2.4827194,0.1382084c-0.6055908-1.2737083-0.7921448-2.6196508-0.5644608-3.9446449  c0.3422661,0.0319977,0.6918793,0.082325,1.0574532,0.1740389c2.2626991,0.567462,4.4909058,1.2691097,6.69133,2.0530186  c0.0894165,0.0489225,0.1831741,0.0824528,0.2800598,0.1000166c0.1564751,0.0563307,0.3095016,0.1220503,0.4657211,0.1792116  c-0.5629921,2.1410933,0.1893044,4.3685331,1.0627556,6.420083c-1.2026253,0.8095207-1.9804688,2.1820965-1.8488998,3.7422504  c0.0433006,0.5135574,0.2993469,0.8188438,0.7681961,1.0090408c2.7587547,1.1189575,6.1097565-1.4170895,5.8199844-4.3678303  c-0.0557556-0.5676537-0.4337845-1.0461483-1.046402-1.0464039c-0.41399-0.0001926-0.8278503-0.0003204-1.2418404-0.000576  c-0.1316948-0.0567131-0.2837601-0.0873051-0.4670601-0.0704441c-0.6405296-1.6394138-1.1221542-3.3188725-0.9435806-4.876791  c1.6495705,0.6450615,3.286171,1.3179684,4.9041901,2.0263863c0.092926,0.6967297,0.9636307,1.2535896,1.6637497,0.7408619  c0.2271118,0.1030827,0.4507751,0.2134457,0.6772461,0.3179321c0.2205353,2.1276798,0.8611298,4.2814178,1.4748917,5.9678383  c-1.3290787,1.0240517-2.0157166,2.9125481-1.3985672,4.5186863c0.1745529,0.4542885,0.5053864,0.7492924,1.0090408,0.768198  c2.556427,0.0962467,4.4456253-2.329565,4.0364227-4.7686005c-0.0542221-0.3234234-0.4082413-0.6755257-0.730835-0.730835  c-0.0291901-0.004982-0.0592041-0.0080471-0.0885849-0.0127087c-0.1872559-0.3259163-0.5133667-0.4843712-0.8850098-0.4989967  c-0.5300369-1.3887348-1.00457-2.7869835-1.240181-4.2215748c1.4412994,0.6978168,2.8675232,1.4272461,4.2871017,2.1703434  c0.1583328,0.5787029,0.8214645,0.8701935,1.3589096,0.7110367c0.4684677,0.2502327,0.9318924,0.5102367,1.3984451,0.7641735  c-0.1810684,1.8906689-0.0488586,3.8423939,0.1486206,5.7300606c-0.1768494,0.0664215-0.3519745,0.1509819-0.5207138,0.273735  c-0.2085266,0.1516857-0.373558,0.3358803-0.5026398,0.5391064c-0.3346024,0.2856789-0.6343918,0.6090393-0.8480911,1.0143414  c-0.466301,0.8842468-0.4041519,2.1246796,0.2822266,2.881382c1.5481491,1.7067909,4.4971008,0.2334976,4.8665085-1.7781982  c0.1836853-1.0004196-0.3437347-2.0017338-1.138504-2.5769882c-0.1645203-1.6491222-0.2663879-3.2946014-0.1884689-4.9365063  c1.0076981,0.5619698,2.0103531,1.1331997,3.0114746,1.706665c0.1900101,0.2620487,0.4916534,0.4339161,0.814827,0.4664249  c0.3331299,0.1919212,0.6624908,0.3885059,0.9951172,0.5811939c-0.0740204,1.2767735,0.0722351,2.5795422,0.2628784,3.8506317  c-0.9553909,0.3929768-1.6682205,1.4183025-1.2485428,2.5439053c0.034935,0.0937576,0.089859,0.173336,0.1422958,0.2543831  c-0.3323669,0.6931534,0.2218704,1.4757195,0.8789444,1.530201c0.2552109,0.2568092,0.6239166,0.3712616,1.0144653,0.2927055  c0.4236984-0.0852661,0.8041534-0.2739944,1.130455-0.5300369c0.3183823-0.034935,0.6130676-0.120903,0.8185883-0.3264275  c0.516304-0.5162392,0.4667435-1.1898499,0.2031021-1.8068085c-0.004982-0.0116272-0.0154572-0.0188408-0.0207596-0.0302124  c-0.058754-0.5276718-0.3050308-1.031395-0.6706696-1.449852c-0.0238876-0.0273361-0.0511627-0.0462418-0.0758133-0.0717239  c-0.160881-1.0097446-0.3041382-2.0245342-0.3326187-3.0288506c0.5366135,0.3137169,1.0741882,0.6257095,1.6098404,0.9402561  c-0.1330338,0.7447586,0.6753311,1.6239586,1.5595779,1.1475716c0.0699387-0.0376816,0.1242905-0.085392,0.1909637-0.1251812  c0.0343018,0.0201817,0.0689163,0.0401096,0.1032104,0.0602913c-0.3191452,0.5594788-0.6383514,1.1188927-0.9574966,1.6783714  c-0.3027954,0.2108917-0.4939575,0.5457497-0.5054474,0.8859062c-8.7567444,15.3488159-17.5134125,30.6976318-26.2700882,46.0464478  c-2.4732056,4.3350067-21.417057-6.874054-24.7494049-8.6468201C29.4727058,66.8074875,21.0981522,62.3379135,12.7209778,57.8730698  z M16.1424847,62.066288c6.8847828,3.6689262,13.7696934,7.3377953,20.6544781,11.0067253  c8.1275139,4.3311081,16.2837067,8.4782715,25.4221191,10.1454086c0.4634209,0.0845566,0.9344444-0.0475235,1.181675-0.4809265  c9.0343704-15.8355484,18.0688019-31.6710358,27.1031723-47.506649c1.8615417,1.025074,1.6242142,1.749649,0.4354477,4.5666504  c-0.2831268,0.2166367-0.4344254,0.5551338-0.4288712,0.8979111c-0.8765793,1.801384-2.0116348,3.4968071-3.1060638,5.1571045  c-2.7366562,4.1517677-5.6403275,8.190937-8.3593521,12.3568192c-5.1952362,7.9596748-10.0000458,16.169384-14.5309296,24.5229912  c-0.7399063,1.3641434-1.7093506,4.5184937-3.6523285,4.7112503c-3.06353,0.3038788-6.1760445-0.8107986-9.0143127-1.8202286  c-4.8989525-1.7423019-9.6492233-4.3395309-14.2919388-6.6709518c-8.2328339-4.1342697-16.0215969-9.0537872-22.4895821-15.6508446  C15.4248695,62.8897934,15.7836132,62.4780388,16.1424847,62.066288z M15.327281,71.5456848  c0.7167845-0.6172791,1.433568-1.2344971,2.1502886-1.8517761c0.361681-0.2036667,0.4939518-0.5159836,0.4949093-0.8312302  c5.6165028,4.7386475,11.9299927,8.507843,18.5267963,11.896843c3.5284195,1.8126907,8.0552826,4.5191345,12.746666,6.4902115  c-2.4247932-0.5753174-4.8716164-1.1063156-7.2833176-1.7576981C32.5278702,82.9438553,23.747118,76.5585098,15.327281,71.5456848z   M89.3257675,47.6625824c-1.4649277,2.0662384-2.888855,4.1610909-4.3066483,6.2597122  c-2.835968,4.1975594-5.5410767,8.4819794-8.1848068,12.8025513c-5.0932312,8.3235855-9.7470627,16.9095459-14.0934982,25.644371  c-1.7704697-1.1569595-3.6332932-2.0615082-5.5588951-2.7990494c2.0316238,0.2746887,4.0076828,0.2478638,5.8496819-0.2587967  c0.8327675-0.2290878,1.263237-1.7040482,1.5043335-2.1663208c1.4649963-2.8091431,2.9907227-5.5860367,4.5312042-8.3542404  c2.7731857-4.9831924,5.7077103-9.8748703,8.7201462-14.7164001c4.4218597-7.1066589,10.6652832-14.1494522,14.3565674-21.9504128  C92.342865,43.5019341,89.4008713,47.5566254,89.3257675,47.6625824z"></path></svg>